<svg xmlns="http://www.w3.org/2000/svg" xmlns:xlink="http://www.w3.org/1999/xlink" version="1.1" style="shape-rendering:geometricPrecision; text-rendering:geometricPrecision; image-rendering:optimizeQuality; fill-rule:evenodd; clip-rule:evenodd" viewBox="-0.5 -0.5 500 500">
<g><path style="opacity:1" fill="#5e94a3" d="M 221.5,-0.5 C 240.167,-0.5 258.833,-0.5 277.5,-0.5C 280.391,0.789131 282.725,2.78913 284.5,5.5C 284.427,7.02694 285.094,8.02694 286.5,8.5C 287.776,10.5625 288.61,12.8958 289,15.5C 289.333,24.1667 289.667,32.8333 290,41.5C 291.922,47.4299 295.422,52.2632 300.5,56C 316.753,62.8621 333.086,69.5288 349.5,76C 358.85,77.5009 366.85,75.0009 373.5,68.5C 378.167,65.8333 381.833,62.1667 384.5,57.5C 386.027,57.573 387.027,56.9063 387.5,55.5C 393.695,50.7975 400.361,50.2975 407.5,54C 419.339,64.6724 430.672,75.839 441.5,87.5C 441.427,89.0269 442.094,90.0269 443.5,90.5C 446.903,96.1029 447.403,102.103 445,108.5C 439.696,115.97 433.53,122.637 426.5,128.5C 421.898,135.67 420.731,143.337 423,151.5C 429.466,166.403 435.633,181.403 441.5,196.5C 441.427,198.027 442.094,199.027 443.5,199.5C 447.724,204.449 453.058,207.616 459.5,209C 468.5,209.333 477.5,209.667 486.5,210C 493.112,212.442 497.445,216.942 499.5,223.5C 499.5,240.833 499.5,258.167 499.5,275.5C 497.105,281.064 493.105,285.231 487.5,288C 477.124,288.161 466.791,288.828 456.5,290C 449.457,292.379 444.29,296.879 441,303.5C 433.926,320.309 427.426,337.309 421.5,354.5C 421.972,359.031 423.139,363.364 425,367.5C 430.634,374.136 436.634,380.469 443,386.5C 447.66,394.204 447.66,401.871 443,409.5C 431.5,421 420,432.5 408.5,444C 401.5,447.333 394.5,447.333 387.5,444C 381.63,438.298 375.964,432.465 370.5,426.5C 370.027,425.094 369.027,424.427 367.5,424.5C 361.002,421.499 354.336,420.999 347.5,423C 330.568,429.801 313.902,437.134 297.5,445C 293.855,448.453 291.355,452.62 290,457.5C 289.865,467.549 289.198,477.549 288,487.5C 285.231,493.105 281.064,497.105 275.5,499.5C 258.167,499.5 240.833,499.5 223.5,499.5C 218.054,497.899 213.887,494.566 211,489.5C 209.974,478.515 208.974,467.515 208,456.5C 206.198,451.071 203.031,446.571 198.5,443C 180.349,434.84 161.849,427.674 143,421.5C 138.633,421.967 134.466,423.133 130.5,425C 124.162,431.671 117.496,438.004 110.5,444C 102.425,447.799 94.7584,447.133 87.5,442C 75.9701,430.804 64.8035,419.304 54,407.5C 49.808,398.328 51.308,390.328 58.5,383.5C 60.5,383.5 61.5,382.5 61.5,380.5C 63.8333,380.167 65.1667,378.833 65.5,376.5C 74.0103,369.475 77.5103,360.475 76,349.5C 69.6667,333.833 63.3333,318.167 57,302.5C 53.3967,296.896 48.5634,292.729 42.5,290C 31.8754,288.822 21.2088,288.155 10.5,288C 5.64549,285.643 1.97883,282.143 -0.5,277.5C -0.5,258.833 -0.5,240.167 -0.5,221.5C 1.22399,216.606 4.55732,213.106 9.5,211C 19.4268,209.742 29.4268,209.076 39.5,209C 44.1954,207.45 48.5287,205.283 52.5,202.5C 53.9063,202.027 54.573,201.027 54.5,199.5C 61.4155,183.938 68.2488,168.271 75,152.5C 77.5553,144.053 76.5553,136.053 72,128.5C 64.9272,122.098 58.5939,115.098 53,107.5C 50.7051,101.191 51.3717,95.1908 55,89.5C 66.5,78 78,66.5 89.5,55C 96.0001,50.8526 102.667,50.5193 109.5,54C 116.136,59.6345 122.469,65.6345 128.5,72C 134.982,76.0142 141.982,77.3475 149.5,76C 165.833,69.1667 182.167,62.3333 198.5,55.5C 202.987,52.1726 206.154,47.8393 208,42.5C 209.233,32.2251 209.9,21.8918 210,11.5C 212.045,5.62437 215.878,1.62437 221.5,-0.5 Z M 305.5,163.5 C 305.973,164.906 306.973,165.573 308.5,165.5C 310.091,167.633 312.091,169.299 314.5,170.5C 314.973,171.906 315.973,172.573 317.5,172.5C 350.95,206.314 359.45,245.648 343,290.5C 339.421,297.325 335.588,303.992 331.5,310.5C 329.738,311.262 328.738,312.596 328.5,314.5C 326.833,315.5 325.5,316.833 324.5,318.5C 322.738,319.262 321.738,320.596 321.5,322.5C 318.573,323.757 316.239,325.757 314.5,328.5C 312.251,329.08 310.585,330.413 309.5,332.5C 273.686,355.46 236.686,357.46 198.5,338.5C 197.71,337.599 196.71,336.932 195.5,336.5C 152.201,305.774 138.034,264.774 153,213.5C 171.254,171.689 203.254,149.356 249,146.5C 269.433,147.146 288.266,152.813 305.5,163.5 Z"/></g>
<g><path style="opacity:0.506" fill="#b9d0d7" d="M 284.5,5.5 C 285.906,5.97306 286.573,6.97306 286.5,8.5C 285.094,8.02694 284.427,7.02694 284.5,5.5 Z"/></g>
<g><path style="opacity:0.714" fill="#b7ced5" d="M 387.5,55.5 C 387.027,56.9063 386.027,57.573 384.5,57.5C 384.973,56.0937 385.973,55.427 387.5,55.5 Z"/></g>
<g><path style="opacity:0.808" fill="#a5c3cb" d="M 384.5,57.5 C 381.833,62.1667 378.167,65.8333 373.5,68.5C 376.833,64.5 380.5,60.8333 384.5,57.5 Z"/></g>
<g><path style="opacity:0.718" fill="#bdd3d9" d="M 441.5,87.5 C 442.906,87.9731 443.573,88.9731 443.5,90.5C 442.094,90.0269 441.427,89.0269 441.5,87.5 Z"/></g>
<g><path style="opacity:0.545" fill="#b7cfd6" d="M 305.5,163.5 C 307.027,163.427 308.027,164.094 308.5,165.5C 306.973,165.573 305.973,164.906 305.5,163.5 Z"/></g>
<g><path style="opacity:0.8" fill="#b1cbd2" d="M 314.5,170.5 C 316.027,170.427 317.027,171.094 317.5,172.5C 315.973,172.573 314.973,171.906 314.5,170.5 Z"/></g>
<g><path style="opacity:0.431" fill="#c0d5db" d="M 441.5,196.5 C 442.906,196.973 443.573,197.973 443.5,199.5C 442.094,199.027 441.427,198.027 441.5,196.5 Z"/></g>
<g><path style="opacity:0.722" fill="#bbd1d8" d="M 54.5,199.5 C 54.573,201.027 53.9063,202.027 52.5,202.5C 52.427,200.973 53.0937,199.973 54.5,199.5 Z"/></g>
<g><path style="opacity:0.894" fill="#aec9d0" d="M 331.5,310.5 C 331.262,312.404 330.262,313.738 328.5,314.5C 328.738,312.596 329.738,311.262 331.5,310.5 Z"/></g>
<g><path style="opacity:0.706" fill="#b0cad2" d="M 324.5,318.5 C 324.262,320.404 323.262,321.738 321.5,322.5C 321.738,320.596 322.738,319.262 324.5,318.5 Z"/></g>
<g><path style="opacity:0.937" fill="#99bac4" d="M 314.5,328.5 C 313.415,330.587 311.749,331.92 309.5,332.5C 310.585,330.413 312.251,329.08 314.5,328.5 Z"/></g>
<g><path style="opacity:0.937" fill="#adc7cf" d="M 195.5,336.5 C 196.71,336.932 197.71,337.599 198.5,338.5C 196.821,338.715 195.821,338.048 195.5,336.5 Z"/></g>
<g><path style="opacity:0.78" fill="#adc8cf" d="M 65.5,376.5 C 65.1667,378.833 63.8333,380.167 61.5,380.5C 62.5,378.833 63.8333,377.5 65.5,376.5 Z"/></g>
<g><path style="opacity:0.765" fill="#b1cbd2" d="M 61.5,380.5 C 61.5,382.5 60.5,383.5 58.5,383.5C 59.1667,382.167 60.1667,381.167 61.5,380.5 Z"/></g>
<g><path style="opacity:0.549" fill="#b8cfd6" d="M 367.5,424.5 C 369.027,424.427 370.027,425.094 370.5,426.5C 368.973,426.573 367.973,425.906 367.5,424.5 Z"/></g>
</svg>