<svg xmlns="http://www.w3.org/2000/svg" style="shape-rendering:geometricPrecision;text-rendering:geometricPrecision;image-rendering:optimizeQuality;fill-rule:evenodd;clip-rule:evenodd" viewBox="-0.5 -0.5 500 500"><path style="opacity:1" fill="#5e94a3" d="M221.5-.5h56c2.891 1.29 5.225 3.29 7 6-.073 1.527.594 2.527 2 3 1.276 2.063 2.11 4.396 2.5 7l1 26c1.922 5.93 5.422 10.763 10.5 14.5a2208.607 2208.607 0 0 0 49 20c9.35 1.5 17.35-1 24-7.5 4.667-2.667 8.333-6.333 11-11 1.527.073 2.527-.594 3-2 6.195-4.703 12.861-5.203 20-1.5a537.42 537.42 0 0 1 34 33.5c-.073 1.527.594 2.527 2 3 3.403 5.603 3.903 11.603 1.5 18a105.356 105.356 0 0 1-18.5 20c-4.602 7.17-5.769 14.837-3.5 23a1257.07 1257.07 0 0 1 18.5 45c-.073 1.527.594 2.527 2 3 4.224 4.949 9.558 8.116 16 9.5l27 1c6.612 2.442 10.945 6.942 13 13.5v52c-2.395 5.564-6.395 9.731-12 12.5a317.298 317.298 0 0 0-31 2c-7.043 2.379-12.21 6.879-15.5 13.5a822.378 822.378 0 0 0-19.5 51 42.113 42.113 0 0 0 3.5 13 241.166 241.166 0 0 0 18 19c4.66 7.704 4.66 15.371 0 23L408.5 444c-7 3.333-14 3.333-21 0a418.271 418.271 0 0 1-17-17.5c-.473-1.406-1.473-2.073-3-2-6.498-3.001-13.164-3.501-20-1.5a837.3 837.3 0 0 0-50 22c-3.645 3.453-6.145 7.62-7.5 12.5a282.568 282.568 0 0 1-2 30c-2.769 5.605-6.936 9.605-12.5 12h-52c-5.446-1.601-9.613-4.934-12.5-10a6715.294 6715.294 0 0 1-3-33c-1.802-5.429-4.969-9.929-9.5-13.5a561.617 561.617 0 0 0-55.5-21.5 38.842 38.842 0 0 0-12.5 3.5 269.299 269.299 0 0 1-20 19c-8.075 3.799-15.742 3.133-23-2A816.138 816.138 0 0 1 54 407.5c-4.192-9.172-2.692-17.172 4.5-24 2 0 3-1 3-3 2.333-.333 3.667-1.667 4-4 8.51-7.025 12.01-16.025 10.5-27l-19-47c-3.603-5.604-8.437-9.771-14.5-12.5a334.09 334.09 0 0 0-32-2c-4.855-2.357-8.521-5.857-11-10.5v-56c1.724-4.894 5.057-8.394 10-10.5a253.63 253.63 0 0 1 30-2 49.624 49.624 0 0 0 13-6.5c1.406-.473 2.073-1.473 2-3a3742.917 3742.917 0 0 0 20.5-47c2.555-8.447 1.555-16.447-3-24a141.126 141.126 0 0 1-19-21c-2.295-6.309-1.628-12.31 2-18L89.5 55c6.5-4.147 13.167-4.48 20-1a241.35 241.35 0 0 1 19 18c6.482 4.014 13.482 5.347 21 4l49-20.5c4.487-3.327 7.654-7.66 9.5-13a282.83 282.83 0 0 0 2-31c2.045-5.876 5.878-9.876 11.5-12Zm84 164c.473 1.406 1.473 2.073 3 2a16.635 16.635 0 0 0 6 5c.473 1.406 1.473 2.073 3 2 33.45 33.814 41.95 73.148 25.5 118a296.167 296.167 0 0 1-11.5 20c-1.762.762-2.762 2.096-3 4-1.667 1-3 2.333-4 4-1.762.762-2.762 2.096-3 4-2.927 1.257-5.261 3.257-7 6-2.249.58-3.915 1.913-5 4-35.814 22.96-72.814 24.96-111 6-.79-.901-1.79-1.568-3-2-43.299-30.726-57.466-71.726-42.5-123 18.254-41.811 50.254-64.144 96-67 20.433.646 39.266 6.313 56.5 17Z"/><path style="opacity:.506" fill="#b9d0d7" d="M284.5 5.5c1.406.473 2.073 1.473 2 3-1.406-.473-2.073-1.473-2-3Z"/><path style="opacity:.714" fill="#b7ced5" d="M387.5 55.5c-.473 1.406-1.473 2.073-3 2 .473-1.406 1.473-2.073 3-2Z"/><path style="opacity:.808" fill="#a5c3cb" d="M384.5 57.5c-2.667 4.667-6.333 8.333-11 11 3.333-4 7-7.667 11-11Z"/><path style="opacity:.718" fill="#bdd3d9" d="M441.5 87.5c1.406.473 2.073 1.473 2 3-1.406-.473-2.073-1.473-2-3Z"/><path style="opacity:.545" fill="#b7cfd6" d="M305.5 163.5c1.527-.073 2.527.594 3 2-1.527.073-2.527-.594-3-2Z"/><path style="opacity:.8" fill="#b1cbd2" d="M314.5 170.5c1.527-.073 2.527.594 3 2-1.527.073-2.527-.594-3-2Z"/><path style="opacity:.431" fill="#c0d5db" d="M441.5 196.5c1.406.473 2.073 1.473 2 3-1.406-.473-2.073-1.473-2-3Z"/><path style="opacity:.722" fill="#bbd1d8" d="M54.5 199.5c.073 1.527-.594 2.527-2 3-.073-1.527.594-2.527 2-3Z"/><path style="opacity:.894" fill="#aec9d0" d="M331.5 310.5c-.238 1.904-1.238 3.238-3 4 .238-1.904 1.238-3.238 3-4Z"/><path style="opacity:.706" fill="#b0cad2" d="M324.5 318.5c-.238 1.904-1.238 3.238-3 4 .238-1.904 1.238-3.238 3-4Z"/><path style="opacity:.937" fill="#99bac4" d="M314.5 328.5c-1.085 2.087-2.751 3.42-5 4 1.085-2.087 2.751-3.42 5-4Z"/><path style="opacity:.937" fill="#adc7cf" d="M195.5 336.5c1.21.432 2.21 1.099 3 2-1.679.215-2.679-.452-3-2Z"/><path style="opacity:.78" fill="#adc8cf" d="M65.5 376.5c-.333 2.333-1.667 3.667-4 4 1-1.667 2.333-3 4-4Z"/><path style="opacity:.765" fill="#b1cbd2" d="M61.5 380.5c0 2-1 3-3 3a6.544 6.544 0 0 1 3-3Z"/><path style="opacity:.549" fill="#b8cfd6" d="M367.5 424.5c1.527-.073 2.527.594 3 2-1.527.073-2.527-.594-3-2Z"/></svg>